<svg xmlns="http://www.w3.org/2000/svg" width="1024" height="1024" viewBox="0 0 1024 1024">
  <!-- Legacy square icon: the owl's head only (book/body dropped) on full purple. -->
  <defs>
    <linearGradient id="bg" x1="0" y1="0" x2="0" y2="1">
      <stop offset="0" stop-color="#7828c8"/>
      <stop offset="1" stop-color="#481878"/>
    </linearGradient>
  </defs>
  <rect width="1024" height="1024" fill="url(#bg)"/>
  <g transform="translate(512 512) scale(1.85) translate(-512 -389)">
    <!-- ear tufts -->
    <path d="M405 322 L360 232 L470 300 Z" fill="#e7d4af"/>
    <path d="M619 322 L664 232 L554 300 Z" fill="#e7d4af"/>
    <!-- face disc -->
    <ellipse cx="512" cy="452" rx="152" ry="124" fill="#fbf4e4"/>
    <!-- eyes -->
    <circle cx="446" cy="450" r="84" fill="#ffffff"/>
    <circle cx="578" cy="450" r="84" fill="#ffffff"/>
    <circle cx="446" cy="450" r="80" fill="none" stroke="#6f2bbf" stroke-width="11"/>
    <circle cx="578" cy="450" r="80" fill="none" stroke="#6f2bbf" stroke-width="11"/>
    <!-- irises, looking forward -->
    <circle cx="448" cy="460" r="42" fill="#481878"/>
    <circle cx="576" cy="460" r="42" fill="#481878"/>
    <circle cx="448" cy="460" r="23" fill="#1b0d33"/>
    <circle cx="576" cy="460" r="23" fill="#1b0d33"/>
    <circle cx="437" cy="449" r="10" fill="#ffffff"/>
    <circle cx="565" cy="449" r="10" fill="#ffffff"/>
    <!-- beak -->
    <path d="M489 496 L535 496 L512 545 Z" fill="#f5a524"/>
  </g>
</svg>
